<?xml version="1.0" encoding="UTF-8"?>
<svg xmlns="http://www.w3.org/2000/svg" viewBox="0 0 500 500" width="100%" height="100%">
  <defs>
    <radialGradient id="grad" cx="50%" cy="40%" r="60%">
      <stop offset="0%" stop-color="#00d2ff" />
      <stop offset="100%" stop-color="#004c8c" />
    </radialGradient>
    <pattern id="halftone" width="16" height="16" patternUnits="userSpaceOnUse">
      <circle cx="8" cy="8" r="3" fill="#000000" opacity="0.25" />
    </pattern>
  </defs>

  <!-- Background -->
  <rect width="500" height="500" rx="30" fill="url(#grad)" stroke="#1a1a1a" stroke-width="14" />
  <rect width="500" height="500" rx="30" fill="url(#halftone)" />

  <!-- Action lines radiating outward -->
  <g stroke="#ffffff" stroke-width="4" opacity="0.15">
    <line x1="250" y1="250" x2="0" y2="0" />
    <line x1="250" y1="250" x2="250" y2="0" />
    <line x1="250" y1="250" x2="500" y2="0" />
    <line x1="250" y1="250" x2="500" y2="250" />
    <line x1="250" y1="250" x2="500" y2="500" />
    <line x1="250" y1="250" x2="250" y2="500" />
    <line x1="250" y1="250" x2="0" y2="500" />
    <line x1="250" y1="250" x2="0" y2="250" />
  </g>

  <!-- Comic Badge Top -->
  <g transform="translate(250, 60) rotate(-3)">
    <rect x="-140" y="-24" width="280" height="48" rx="8" fill="#ff1616" stroke="#1a1a1a" stroke-width="5" />
    <text x="0" y="8" font-family="'Impact', 'Arial Black', sans-serif" font-size="22" font-weight="900" fill="#ffffff" text-anchor="middle" letter-spacing="3">CRYSTAL CLEAR ENERGY</text>
  </g>

  <!-- Giant Center Emoji / Illustration -->
  <g transform="translate(250, 240)">
    <circle r="110" fill="#ffffff" stroke="#1a1a1a" stroke-width="8" opacity="0.9" />
    <text x="0" y="30" font-size="110" text-anchor="middle">🫧🍋</text>
  </g>

  <!-- Comic Title Banner Bottom -->
  <g transform="translate(250, 410) rotate(2)">
    <rect x="-180" y="-35" width="360" height="70" rx="12" fill="#ffde59" stroke="#1a1a1a" stroke-width="6" />
    <text x="0" y="12" font-family="'Impact', 'Arial Black', sans-serif" font-size="28" font-weight="900" fill="#1a1a1a" text-anchor="middle" letter-spacing="2">THAI SODA SPECIAL</text>
  </g>
</svg>